<?xml version="1.0" encoding="UTF-8"?>
<svg xmlns="http://www.w3.org/2000/svg" viewBox="0 0 833 442.43">
  <defs>
    <style>
      .cls-1 {
        fill: #3d7ed3;
      }

      .cls-1, .cls-2 {
        stroke-width: 0px;
      }

      .cls-2 {
        fill: #ffa100;
      }
    </style>
  </defs>
  <g id="Layer_2" data-name="Layer 2">
    <path class="cls-2" d="m13,0h157v350.41c0,7.5-6.09,13.59-13.59,13.59H13c-7.17,0-13-5.83-13-13V13C0,5.83,5.83,0,13,0Z"/>
    <path class="cls-1" d="m170,0h636c7.17,0,13,5.83,13,13v111H170V0h0Z"/>
  </g>
  <g id="Layer_1" data-name="Layer 1">
    <g>
      <path class="cls-2" d="m157.42,364.14c-2.84,0-5.05-2.21-5.05-5.05v-198.58c0-9.47,7.89-17.36,17.68-17.36h69.46c47.04,0,70.4,30.31,70.4,60.62,0,17.05-7.26,33.78-22.1,45.46,23.05,11.05,34.73,32.2,34.73,53.67,0,30.62-23.36,61.25-70.72,61.25h-94.4Zm29.99-125.33h50.83c24.62,0,36.94-15.78,36.94-31.57s-12.31-30.94-36.94-30.94h-50.83v62.51Zm0,92.19h63.14c24.94,0,37.25-16.1,37.25-31.89s-12.31-31.57-37.25-31.57h-63.14v63.46Z"/>
      <path class="cls-2" d="m344.94,216.39c0-8.84,7.58-16.42,16.73-16.42s16.73,7.58,16.73,16.42v78.93c0,26.83,16.42,44.83,40.73,44.83s40.73-18,40.73-44.83v-78.93c0-8.84,7.58-16.42,16.42-16.42,9.47,0,16.73,7.58,16.73,16.42v79.87c0,43.25-29.99,72.93-73.88,72.93s-74.19-29.68-74.19-72.93v-79.87Z"/>
      <path class="cls-2" d="m542.56,136.52c11.37,0,20.84,9.47,20.84,20.84s-9.47,20.84-20.84,20.84-21.15-9.47-21.15-20.84,9.47-20.84,21.15-20.84Zm-16.73,79.87c0-8.84,7.26-16.42,16.73-16.42,8.84,0,16.42,7.58,16.42,16.42v143.01c0,2.53-2.21,4.74-4.74,4.74h-23.68c-2.53,0-4.74-2.21-4.74-4.74v-143.01Z"/>
      <path class="cls-2" d="m591.5,153.88c0-8.84,7.58-16.42,16.73-16.42s16.73,7.58,16.73,16.42v205.52c0,2.53-2.53,4.74-5.05,4.74h-23.36c-2.84,0-5.05-2.21-5.05-4.74v-205.52Z"/>
      <path class="cls-2" d="m819.12,283.95c0,49.88-34.73,84.92-83.35,84.92s-83.66-35.04-83.66-84.92,31.89-84.29,77.03-84.29c24.31,0,44.2,10.42,56.51,27.47v-73.24c0-8.84,7.58-16.42,16.42-16.42,9.47,0,17.05,7.58,17.05,16.42v130.07Zm-32.83,0c0-31.89-20.84-54.3-50.51-54.3s-51.14,22.42-51.14,54.3,21.15,54.93,51.14,54.93,50.51-22.41,50.51-54.93Z"/>
    </g>
    <path class="cls-1" d="m98.41,173.99c-13.93,0-26.94,3.41-37.77,13-6.81,6.19-12.69,10.84-19.2,10.84-2.17,0-4.64-.62-6.81-1.86-8.67-4.33-11.15-18.58-.31-29.72,16.41-16.72,41.18-24.15,64.09-24.15,40.87,0,69.97,25.7,69.97,62.85,0,21.67-9.91,42.42-35.29,67.49l-59.13,58.82h84.52c8.67,0,15.79,7.12,15.79,16.41s-7.12,16.1-15.79,16.1H39.58c-9.91,0-16.41-6.19-16.41-16.1,0-6.5,3.41-12.69,11.76-21.05l76.78-78.64c15.79-16.1,22.29-29.1,22.29-43.96,0-17.65-14.86-30.03-35.6-30.03Z"/>
  </g>
</svg>